<mxfile host="65bd71144e">
    <diagram id="bBcatNzWtXlXgPjRuVXo" name="Página-1">
        <mxGraphModel dx="651" dy="411" grid="1" gridSize="10" guides="1" tooltips="1" connect="1" arrows="1" fold="1" page="1" pageScale="1" pageWidth="827" pageHeight="1169" math="0" shadow="0">
            <root>
                <mxCell id="0"/>
                <mxCell id="1" parent="0"/>
                <mxCell id="5" value="" style="edgeStyle=none;html=1;" parent="1" source="3" target="4" edge="1">
                    <mxGeometry relative="1" as="geometry"/>
                </mxCell>
                <mxCell id="3" value="INICIO" style="ellipse;whiteSpace=wrap;html=1;fillColor=#60a917;strokeColor=#2D7600;fontColor=#ffffff;" parent="1" vertex="1">
                    <mxGeometry x="280" width="120" height="80" as="geometry"/>
                </mxCell>
                <mxCell id="7" value="" style="edgeStyle=none;html=1;entryX=0.5;entryY=0;entryDx=0;entryDy=0;" parent="1" source="4" target="36" edge="1">
                    <mxGeometry relative="1" as="geometry">
                        <mxPoint x="340" y="200" as="targetPoint"/>
                    </mxGeometry>
                </mxCell>
                <mxCell id="4" value="a,b,c" style="shape=parallelogram;perimeter=parallelogramPerimeter;whiteSpace=wrap;html=1;fixedSize=1;fillColor=#008a00;strokeColor=#005700;fontColor=#ffffff;" parent="1" vertex="1">
                    <mxGeometry x="280" y="110" width="120" height="60" as="geometry"/>
                </mxCell>
                <mxCell id="39" value="" style="edgeStyle=none;html=1;fontSize=13;fontColor=none;" parent="1" source="36" target="38" edge="1">
                    <mxGeometry relative="1" as="geometry"/>
                </mxCell>
                <mxCell id="36" value="d=b2-4ac" style="rounded=0;whiteSpace=wrap;html=1;labelBackgroundColor=none;fontSize=13;fillColor=#1ba1e2;strokeColor=#006EAF;fontColor=#ffffff;" parent="1" vertex="1">
                    <mxGeometry x="280" y="200" width="120" height="60" as="geometry"/>
                </mxCell>
                <mxCell id="41" value="" style="edgeStyle=none;html=1;fontSize=13;fontColor=none;" parent="1" source="38" target="40" edge="1">
                    <mxGeometry relative="1" as="geometry">
                        <Array as="points">
                            <mxPoint x="480" y="320"/>
                        </Array>
                    </mxGeometry>
                </mxCell>
                <mxCell id="45" value="" style="edgeStyle=none;html=1;fontSize=13;fontColor=none;" parent="1" source="38" target="44" edge="1">
                    <mxGeometry relative="1" as="geometry">
                        <Array as="points">
                            <mxPoint x="160" y="320"/>
                        </Array>
                    </mxGeometry>
                </mxCell>
                <mxCell id="38" value="d=0" style="rhombus;whiteSpace=wrap;html=1;fontSize=13;fillColor=#0050ef;strokeColor=#001DBC;rounded=0;labelBackgroundColor=none;fontColor=#ffffff;" parent="1" vertex="1">
                    <mxGeometry x="300" y="280" width="80" height="80" as="geometry"/>
                </mxCell>
                <mxCell id="43" value="" style="edgeStyle=none;html=1;fontSize=13;fontColor=none;" parent="1" source="40" target="42" edge="1">
                    <mxGeometry relative="1" as="geometry"/>
                </mxCell>
                <mxCell id="40" value="X1=--b/2a&lt;br&gt;x2=x1" style="rounded=0;whiteSpace=wrap;html=1;fontSize=13;fillColor=#6a00ff;strokeColor=#3700CC;labelBackgroundColor=none;fontColor=#ffffff;" parent="1" vertex="1">
                    <mxGeometry x="420" y="380" width="120" height="60" as="geometry"/>
                </mxCell>
                <mxCell id="42" value="x1,x2" style="shape=document;whiteSpace=wrap;html=1;boundedLbl=1;fontSize=13;fillColor=#d80073;strokeColor=#A50040;rounded=0;labelBackgroundColor=none;fontColor=#ffffff;" parent="1" vertex="1">
                    <mxGeometry x="420" y="480" width="120" height="80" as="geometry"/>
                </mxCell>
                <mxCell id="49" value="" style="edgeStyle=none;html=1;fontSize=13;fontColor=none;" parent="1" source="44" target="48" edge="1">
                    <mxGeometry relative="1" as="geometry">
                        <Array as="points">
                            <mxPoint x="80" y="390"/>
                        </Array>
                    </mxGeometry>
                </mxCell>
                <mxCell id="44" value="d&amp;gt;0" style="rhombus;whiteSpace=wrap;html=1;fontSize=13;fillColor=#a20025;strokeColor=#6F0000;rounded=0;labelBackgroundColor=none;fontColor=#ffffff;" parent="1" vertex="1">
                    <mxGeometry x="120" y="350" width="80" height="80" as="geometry"/>
                </mxCell>
                <mxCell id="48" value="solucion imaginaria" style="shape=document;whiteSpace=wrap;html=1;boundedLbl=1;fontSize=13;fillColor=#e51400;strokeColor=#B20000;rounded=0;labelBackgroundColor=none;fontColor=#ffffff;" parent="1" vertex="1">
                    <mxGeometry x="20" y="450" width="120" height="80" as="geometry"/>
                </mxCell>
                <mxCell id="53" value="" style="endArrow=classic;html=1;fontSize=13;fontColor=none;exitX=1;exitY=0.5;exitDx=0;exitDy=0;entryX=0.5;entryY=0;entryDx=0;entryDy=0;" parent="1" source="44" target="54" edge="1">
                    <mxGeometry width="50" height="50" relative="1" as="geometry">
                        <mxPoint x="250" y="400" as="sourcePoint"/>
                        <mxPoint x="260" y="450" as="targetPoint"/>
                        <Array as="points">
                            <mxPoint x="280" y="390"/>
                        </Array>
                    </mxGeometry>
                </mxCell>
                <mxCell id="56" value="" style="edgeStyle=none;html=1;fontSize=13;fontColor=none;" parent="1" source="54" target="55" edge="1">
                    <mxGeometry relative="1" as="geometry"/>
                </mxCell>
                <mxCell id="54" value="x1=-b+&lt;span style=&quot;color: rgb(32, 33, 36); font-family: arial, sans-serif; font-size: 16px; text-align: start;&quot;&gt;√&lt;/span&gt;&lt;span style=&quot;color: rgb(32, 33, 36); font-family: arial, sans-serif; text-align: start;&quot;&gt;&lt;font style=&quot;font-size: 12px;&quot;&gt;d&lt;/font&gt;&lt;font style=&quot;font-size: 15px;&quot;&gt;/&lt;/font&gt;&lt;font style=&quot;&quot;&gt;&lt;span style=&quot;font-size: 14px;&quot;&gt;2a&lt;/span&gt;&lt;br&gt;&lt;font style=&quot;font-size: 13px;&quot;&gt;x2=-b-&lt;/font&gt;&lt;/font&gt;&lt;/span&gt;&lt;span style=&quot;color: rgb(32, 33, 36); font-family: arial, sans-serif; font-size: 15px; text-align: start;&quot;&gt;√d&lt;/span&gt;&lt;span style=&quot;color: rgb(32, 33, 36); font-family: arial, sans-serif; text-align: start;&quot;&gt;&lt;font style=&quot;font-size: 13px;&quot;&gt;/&lt;/font&gt;&lt;font style=&quot;font-size: 14px;&quot;&gt;2a&lt;/font&gt;&lt;/span&gt;&lt;span style=&quot;color: rgb(32, 33, 36); font-family: arial, sans-serif; text-align: start; background-color: rgb(255, 255, 255);&quot;&gt;&lt;font style=&quot;&quot;&gt;&lt;font style=&quot;font-size: 13px;&quot;&gt;&lt;br&gt;&lt;/font&gt;&lt;/font&gt;&lt;/span&gt;" style="rounded=0;whiteSpace=wrap;html=1;labelBackgroundColor=none;fontSize=13;fillColor=#fa6800;strokeColor=#C73500;fontColor=#000000;" parent="1" vertex="1">
                    <mxGeometry x="220" y="450" width="120" height="60" as="geometry"/>
                </mxCell>
                <mxCell id="55" value="x1,x2" style="shape=document;whiteSpace=wrap;html=1;boundedLbl=1;fontSize=13;rounded=0;labelBackgroundColor=none;fillColor=#f0a30a;strokeColor=#BD7000;fontColor=#000000;" parent="1" vertex="1">
                    <mxGeometry x="220" y="545" width="120" height="80" as="geometry"/>
                </mxCell>
                <mxCell id="57" value="" style="endArrow=none;html=1;fontSize=13;fontColor=none;" parent="1" edge="1">
                    <mxGeometry width="50" height="50" relative="1" as="geometry">
                        <mxPoint x="80" y="520" as="sourcePoint"/>
                        <mxPoint x="280" y="720" as="targetPoint"/>
                        <Array as="points">
                            <mxPoint x="80" y="720"/>
                        </Array>
                    </mxGeometry>
                </mxCell>
                <mxCell id="58" value="" style="endArrow=none;html=1;fontSize=13;fontColor=none;entryX=0.517;entryY=0.85;entryDx=0;entryDy=0;entryPerimeter=0;" parent="1" target="55" edge="1">
                    <mxGeometry width="50" height="50" relative="1" as="geometry">
                        <mxPoint x="280" y="720" as="sourcePoint"/>
                        <mxPoint x="280" y="620" as="targetPoint"/>
                    </mxGeometry>
                </mxCell>
                <mxCell id="59" value="" style="endArrow=none;html=1;fontSize=13;fontColor=none;entryX=0.508;entryY=0.863;entryDx=0;entryDy=0;entryPerimeter=0;" parent="1" target="42" edge="1">
                    <mxGeometry width="50" height="50" relative="1" as="geometry">
                        <mxPoint x="360" y="760" as="sourcePoint"/>
                        <mxPoint x="300" y="720" as="targetPoint"/>
                        <Array as="points">
                            <mxPoint x="480" y="760"/>
                        </Array>
                    </mxGeometry>
                </mxCell>
                <mxCell id="60" value="" style="endArrow=none;html=1;fontSize=13;fontColor=none;" parent="1" edge="1">
                    <mxGeometry width="50" height="50" relative="1" as="geometry">
                        <mxPoint x="360" y="760" as="sourcePoint"/>
                        <mxPoint x="200" y="720" as="targetPoint"/>
                        <Array as="points">
                            <mxPoint x="200" y="760"/>
                        </Array>
                    </mxGeometry>
                </mxCell>
                <mxCell id="61" value="" style="endArrow=classic;html=1;fontSize=13;fontColor=none;entryX=0.5;entryY=0;entryDx=0;entryDy=0;" parent="1" target="62" edge="1">
                    <mxGeometry width="50" height="50" relative="1" as="geometry">
                        <mxPoint x="360" y="760" as="sourcePoint"/>
                        <mxPoint x="360" y="810" as="targetPoint"/>
                    </mxGeometry>
                </mxCell>
                <mxCell id="62" value="FIN" style="ellipse;whiteSpace=wrap;html=1;labelBackgroundColor=none;fontSize=13;fillColor=#e3c800;strokeColor=#B09500;fontColor=#000000;" parent="1" vertex="1">
                    <mxGeometry x="300" y="800" width="120" height="80" as="geometry"/>
                </mxCell>
                <mxCell id="65" value="F" style="text;html=1;strokeColor=none;fillColor=none;align=center;verticalAlign=middle;whiteSpace=wrap;rounded=0;" vertex="1" parent="1">
                    <mxGeometry x="220" y="290" width="60" height="30" as="geometry"/>
                </mxCell>
                <mxCell id="66" value="V" style="text;html=1;strokeColor=none;fillColor=none;align=center;verticalAlign=middle;whiteSpace=wrap;rounded=0;" vertex="1" parent="1">
                    <mxGeometry x="390" y="290" width="60" height="30" as="geometry"/>
                </mxCell>
                <mxCell id="67" value="F" style="text;html=1;strokeColor=none;fillColor=none;align=center;verticalAlign=middle;whiteSpace=wrap;rounded=0;" vertex="1" parent="1">
                    <mxGeometry x="70" y="360" width="60" height="30" as="geometry"/>
                </mxCell>
                <mxCell id="68" value="V" style="text;html=1;strokeColor=none;fillColor=none;align=center;verticalAlign=middle;whiteSpace=wrap;rounded=0;" vertex="1" parent="1">
                    <mxGeometry x="200" y="360" width="60" height="30" as="geometry"/>
                </mxCell>
            </root>
        </mxGraphModel>
    </diagram>
</mxfile>